<?xml version="1.0" encoding="UTF-8" standalone="no"?>
<!-- Created with Inkscape (http://www.inkscape.org/) -->

<svg
   xmlns:dc="http://purl.org/dc/elements/1.1/"
   xmlns:cc="http://creativecommons.org/ns#"
   xmlns:rdf="http://www.w3.org/1999/02/22-rdf-syntax-ns#"
   xmlns:svg="http://www.w3.org/2000/svg"
   xmlns="http://www.w3.org/2000/svg"
   xmlns:sodipodi="http://sodipodi.sourceforge.net/DTD/sodipodi-0.dtd"
   xmlns:inkscape="http://www.inkscape.org/namespaces/inkscape"
   width="274.28571"
   height="154.28572"
   viewBox="0 0 72.571424 40.821431"
   version="1.1"
   id="svg106"
   inkscape:export-filename="/home/mikebearly/projects/apple-mac-plymouth/apple-mac-plymouth/boot_16x9.png"
   inkscape:export-xdpi="96"
   inkscape:export-ydpi="96"
   inkscape:version="0.92.3 (2405546, 2018-03-11)"
   sodipodi:docname="boot_16x9.svg">
  <defs
     id="defs100" />
  <sodipodi:namedview
     id="base"
     pagecolor="#ffffff"
     bordercolor="#666666"
     borderopacity="1.0"
     inkscape:pageopacity="0.0"
     inkscape:pageshadow="2"
     inkscape:zoom="2"
     inkscape:cx="160.98835"
     inkscape:cy="43.991811"
     inkscape:document-units="mm"
     inkscape:current-layer="layer1"
     showgrid="false"
     units="px"
     inkscape:pagecheckerboard="true"
     inkscape:window-width="1920"
     inkscape:window-height="974"
     inkscape:window-x="0"
     inkscape:window-y="28"
     inkscape:window-maximized="1" />
  <metadata
     id="metadata103">
    <rdf:RDF>
      <cc:Work
         rdf:about="">
        <dc:format>image/svg+xml</dc:format>
        <dc:type
           rdf:resource="http://purl.org/dc/dcmitype/StillImage" />
        <dc:title></dc:title>
      </cc:Work>
    </rdf:RDF>
  </metadata>
  <g
     inkscape:label="Layer 1"
     inkscape:groupmode="layer"
     id="layer1"
     transform="translate(0,-256.17852)">
    <path
       d="M 47.909349,281.48072 H 20.336982 l 0.0036,-0.001 h 27.536451 v -0.058 c -0.63078,-1.22455 -0.918087,-3.13866 -0.676527,-4.68937 v -0.058 h 0.0017 c 0.252253,-2.03046 1.609227,-4.10817 2.693721,-4.86149 0.01262,-0.009 0.02777,-0.02 0.04225,-0.0312 v -0.002 h 0.0027 v 0 c 0.240425,-0.25542 0.925962,-0.7862 1.389197,-1.10744 -1.709924,-2.42531 -4.509929,-3.73382 -7.361273,-3.77566 -2.874862,-0.23312 -5.858824,1.75403 -7.467715,1.70853 -1.556781,0.0454 -3.908157,-1.74792 -6.389371,-1.63462 l -0.02462,-0.002 c -0.05532,0 -0.502419,0.0235 -0.502419,0.0235 -3.289057,0.0784 -6.204564,1.94691 -7.860047,4.77997 v 0.008 h -0.0099 v -0.008 c -0.65512,1.02057 -1.440422,3.40043 -1.557748,4.90621 v 0 0.0804 c -0.158638,0.95563 -0.0055,3.50192 0.172799,4.72662 v 0 c 0.0078,0.0214 0.0091,0.0438 0.01076,0.0615 l 0.0039,-0.001 c 0.138726,1.22088 0.782,3.57986 1.264153,4.73285 v 0.0103 h -0.0025 c 0.462771,1.27435 1.755875,3.6646 2.590711,4.88737 v 0.009 h 0.0087 c 1.685561,2.33307 3.670475,4.95553 6.286677,4.84294 2.527811,-0.0929 3.458405,-1.61848 6.502905,-1.59534 3.043247,-0.0232 3.88512,1.52201 6.551481,1.5336 2.71886,-0.1125 4.403291,-2.44462 6.090033,-4.7812 0.825607,-1.20395 2.121194,-3.52087 2.579158,-4.89629 h 0.0067 c 0.05133,-0.14553 0.12801,-0.36884 0.182677,-0.5316 -1.787936,-0.48843 -3.793621,-2.75887 -4.495461,-4.27104"
       style="fill:#ffffff;fill-opacity:1;fill-rule:evenodd;stroke:none;stroke-width:0.04136255"
       id="path175"
       inkscape:connector-curvature="0" />
    <path
       d="m 41.857294,263.09788 c 1.355324,-1.63094 2.342536,-3.87475 2.087622,-6.13682 -2.024427,0.0714 -4.435544,1.28699 -5.871836,2.92849 -1.293607,1.41412 -2.416553,3.74645 -2.094702,5.94066 2.200694,0.14054 4.462892,-1.09039 5.878916,-2.73233"
       style="fill:#ffffff;fill-opacity:1;fill-rule:evenodd;stroke:none;stroke-width:0.04136255"
       id="path171"
       inkscape:connector-curvature="0" />
  </g>
</svg>
