<?xml version="1.0" encoding="UTF-8" standalone="no"?>
<!-- Created with Inkscape (http://www.inkscape.org/) -->

<svg
   xmlns:dc="http://purl.org/dc/elements/1.1/"
   xmlns:cc="http://creativecommons.org/ns#"
   xmlns:rdf="http://www.w3.org/1999/02/22-rdf-syntax-ns#"
   xmlns:svg="http://www.w3.org/2000/svg"
   xmlns="http://www.w3.org/2000/svg"
   xmlns:sodipodi="http://sodipodi.sourceforge.net/DTD/sodipodi-0.dtd"
   xmlns:inkscape="http://www.inkscape.org/namespaces/inkscape"
   version="1.1"
   id="svg127"
   xml:space="preserve"
   width="220"
   height="260"
   viewBox="0 0 220 260"
   sodipodi:docname="applebearly.svg"
   inkscape:export-filename="/home/mikebearly/Desktop/test.png"
   inkscape:export-xdpi="96"
   inkscape:export-ydpi="96"
   inkscape:version="0.92.3 (2405546, 2018-03-11)"><metadata
     id="metadata133"><rdf:RDF><cc:Work
         rdf:about=""><dc:format>image/svg+xml</dc:format><dc:type
           rdf:resource="http://purl.org/dc/dcmitype/StillImage" /><dc:title></dc:title></cc:Work></rdf:RDF></metadata><defs
     id="defs131" /><sodipodi:namedview
     pagecolor="#ffffff"
     bordercolor="#666666"
     borderopacity="1"
     objecttolerance="10"
     gridtolerance="10"
     guidetolerance="10"
     inkscape:pageopacity="0"
     inkscape:pageshadow="2"
     inkscape:window-width="1920"
     inkscape:window-height="974"
     id="namedview129"
     showgrid="false"
     inkscape:pagecheckerboard="true"
     inkscape:zoom="2.5805753"
     inkscape:cx="131.48453"
     inkscape:cy="110.11836"
     inkscape:window-x="0"
     inkscape:window-y="28"
     inkscape:window-maximized="1"
     inkscape:current-layer="g137" /><g
     id="g135"
     inkscape:groupmode="layer"
     inkscape:label="ink_ext_XXXXXX"
     transform="matrix(1.3333333,0,0,-1.3333333,0,260.00001)"><g
       id="g137"
       transform="scale(0.1)"><path
         d="M 916.45612,988.81229 H 668.77081 l 0.031,0.0288 h 247.36325 v 0.8723 c -5.66635,18.45771 -8.24726,47.30841 -6.07731,70.68201 v 0.873 h 0.0162 c 2.26608,30.6048 14.45588,61.9215 24.19794,73.2765 0.11199,0.1347 0.24821,0.3 0.37957,0.4714 v 0.067 h 0.0256 v 0 c 2.1597,3.8503 8.31794,11.8509 12.47924,16.6928 -15.36041,36.5565 -40.51312,56.2794 -66.12705,56.9099 -25.82515,3.5136 -52.63038,-26.438 -67.08321,-25.7524 -13.98469,-0.6856 -35.10737,26.3462 -57.39637,24.6383 l -0.22175,0.049 c -0.49689,0 -4.51326,-0.355 -4.51326,-0.355 -29.54592,-1.1814 -55.7362,-29.3456 -70.60755,-72.0479 v -0.1347 h -0.0916 v 0.1347 c -5.88499,-15.3829 -12.93941,-51.2539 -13.9934,-73.9499 v 0 -1.2127 c -1.42506,-14.4041 -0.0486,-52.7839 1.55216,-71.24338 v 0 c 0.0668,-0.32319 0.0814,-0.65804 0.0976,-0.928 l 0.0338,0.0408 c 1.2461,-18.40193 7.02478,-53.95821 11.35598,-71.33728 v -0.16463 h -0.0236 c 4.15711,-19.20805 15.77319,-55.23568 23.27258,-73.66638 v -0.1341 h 0.0799 c 15.14156,-35.16628 32.97225,-74.69413 56.47381,-72.99668 22.70758,1.40119 31.06724,24.39469 58.41627,24.04577 27.33777,0.34892 34.90041,-22.94083 58.85262,-23.11529 24.42379,1.69496 39.55516,36.84725 54.70735,72.0662 7.4165,18.14667 19.05493,53.06936 23.16884,73.80048 h 0.0587 c 0.46132,2.19509 1.15012,5.55938 1.64094,8.01276 -16.06118,7.36215 -34.07847,41.58396 -40.38319,64.37671"
         style="fill:#ffffff;fill-opacity:1;fill-rule:evenodd;stroke:none;stroke-width:0.48130214"
         id="path175"
         inkscape:connector-curvature="0" /><path
         d="m 862.0899,1265.8936 c 12.175,24.5832 21.04323,58.4035 18.75332,92.4992 -18.18562,-1.0774 -39.84495,-19.3984 -52.7473,-44.1408 -11.62059,-21.3144 -21.70813,-56.4692 -18.8169,-89.5426 19.76904,-2.118 40.09059,16.4357 52.81088,41.1842"
         style="fill:#ffffff;fill-opacity:1;fill-rule:evenodd;stroke:none;stroke-width:0.48130214"
         id="path171"
         inkscape:connector-curvature="0" /></g></g></svg>